<?xml version="1.0" encoding="UTF-8"?>
<svg version="1.1" xmlns="http://www.w3.org/2000/svg" width="1366" height="768">
<path d="M0 0 C450.78 0 901.56 0 1366 0 C1366 253.44 1366 506.88 1366 768 C915.22 768 464.44 768 0 768 C0 514.56 0 261.12 0 0 Z " fill="#FEFEFE" transform="translate(0,0)"/>
<path d="M0 0 C0.9113269 0.00237671 1.82265381 0.00475342 2.76159668 0.00720215 C17.60895416 0.06757045 31.86827253 1.03743869 46.375 4.4375 C47.05191895 4.59234863 47.72883789 4.74719727 48.42626953 4.90673828 C52.48939393 5.87048962 56.42146994 7.09904234 60.375 8.4375 C61.47690674 8.79884033 61.47690674 8.79884033 62.60107422 9.16748047 C93.72288162 19.39527509 120.75270045 34.5596984 144.375 57.4375 C145.16535645 58.18918457 145.16535645 58.18918457 145.97167969 58.95605469 C171.53863415 83.30914781 191.48496838 115.66524965 203 149 C203.22333008 149.62769287 203.44666016 150.25538574 203.67675781 150.90209961 C207.52085674 162.92027335 207.67985387 176.16585686 207.640625 188.65625 C207.64197956 190.05236884 207.64392656 191.44848722 207.64642334 192.84460449 C207.64933759 195.74198995 207.64519851 198.63925041 207.63574219 201.53662109 C207.62434988 205.20036531 207.63092957 208.86381621 207.64288712 212.52754974 C207.65020719 215.4019379 207.64777202 218.27625957 207.64263153 221.15065002 C207.64069941 223.14206133 207.64663862 225.13347551 207.65289307 227.12487793 C207.44389152 268.51519701 189.30961349 310.97600433 160.375 340.4375 C159.72144531 341.12714844 159.06789063 341.81679688 158.39453125 342.52734375 C140.529319 359.93545035 110.10115686 357.80101501 87.125 357.8125 C86.0576059 357.81449402 84.99021179 357.81648804 83.89047241 357.81854248 C72.21717691 357.81607699 60.8767756 357.60393369 49.375 355.4375 C48.23643555 355.23624512 47.09787109 355.03499023 45.92480469 354.82763672 C25.83043216 351.09816658 10.9836329 336.99657727 -0.44921875 320.86328125 C-9.86915415 306.70162556 -18.30188215 291.5010459 -15.1953125 274.01953125 C-14.49668887 271.72097324 -13.62687845 269.62244769 -12.625 267.4375 C-11.89410156 265.79974609 -11.89410156 265.79974609 -11.1484375 264.12890625 C-5.15317346 251.18962675 3.41806183 238.53506463 17.19970703 233.24902344 C23.21932036 231.71056467 29.3605628 231.88738655 35.53369141 231.97094727 C37.87083994 231.99994838 40.20571633 231.99151399 42.54296875 231.97851562 C55.51118403 231.99136971 64.38632031 234.23248587 75.1875 241.5 C76.81656402 242.57792513 78.4480043 243.65226936 80.08203125 244.72265625 C80.7881958 245.19582275 81.49436035 245.66898926 82.22192383 246.15649414 C86.27482018 248.5678273 89.6393798 249.81136475 94.375 249.4375 C95.365 249.1075 96.355 248.7775 97.375 248.4375 C101.07119335 239.0781332 98.12572211 227.25962102 94.375 218.4375 C83.66224653 197.66491483 65.04742182 182.43178615 42.91918945 175.1574707 C15.85261326 166.71034013 -13.98519907 171.31039555 -39.25 183.4375 C-41.72884528 184.74291042 -44.18022068 186.07126687 -46.625 187.4375 C-47.48867188 187.91719238 -48.35234375 188.39688477 -49.2421875 188.89111328 C-63.64093099 196.94650789 -77.2982642 205.72113882 -90.625 215.4375 C-91.72473145 216.23921631 -91.72473145 216.23921631 -92.84667969 217.05712891 C-93.56500977 217.58097168 -94.28333984 218.10481445 -95.0234375 218.64453125 C-96.47361316 219.7009948 -97.92413414 220.75698451 -99.375 221.8125 C-100.09187988 222.33432861 -100.80875977 222.85615723 -101.54736328 223.39379883 C-111.69104318 230.72274613 -122.16701453 237.56864564 -132.625 244.4375 C-133.32109375 244.89640625 -134.0171875 245.3553125 -134.734375 245.828125 C-182.58148326 277.31724753 -182.58148326 277.31724753 -193.625 275.4375 C-201.00421754 267.84744767 -201.17932778 254.57225743 -201.796875 244.5859375 C-201.9162442 242.78073135 -201.9162442 242.78073135 -202.0380249 240.9390564 C-202.80730258 228.2588608 -202.92816321 215.58692136 -202.88574219 202.88671875 C-202.8748679 199.01547083 -202.88580229 195.14467294 -202.8984375 191.2734375 C-202.89711792 188.7578115 -202.89455971 186.24218577 -202.890625 183.7265625 C-202.89467346 182.59610504 -202.89872192 181.46564758 -202.90289307 180.30093384 C-202.83668502 168.8559314 -201.53419209 157.60764678 -197.8125 146.75 C-197.51754639 145.88334717 -197.22259277 145.01669434 -196.91870117 144.1237793 C-190.10376561 124.96760274 -180.73290021 106.76793781 -168.625 90.4375 C-168.16383789 89.81101562 -167.70267578 89.18453125 -167.22753906 88.5390625 C-160.60954872 79.63366173 -153.30758614 71.43134669 -145.625 63.4375 C-145.10679687 62.89206543 -144.58859375 62.34663086 -144.0546875 61.78466797 C-136.16014145 53.50365861 -127.81676671 46.24377072 -118.625 39.4375 C-117.79742188 38.81488281 -116.96984375 38.19226563 -116.1171875 37.55078125 C-96.07716496 22.97930723 -73.27746219 12.34547238 -49.4375 5.8125 C-48.74462891 5.61817383 -48.05175781 5.42384766 -47.33789062 5.22363281 C-31.71509639 1.12664893 -16.09332976 -0.11119162 0 0 Z " fill="#FEFEFE" transform="translate(706.625,114.5625)"/>
<path d="M0 0 C0.9497168 0.3098584 1.89943359 0.6197168 2.87792969 0.93896484 C14.71987357 4.81728851 26.12950611 8.8466384 37 15 C37.82886719 15.46035645 38.65773438 15.92071289 39.51171875 16.39501953 C51.27895533 22.96533657 62.27215849 29.5915724 72 39 C72.77118164 39.74233887 73.54236328 40.48467773 74.33691406 41.24951172 C83.78503933 50.40227119 92.97657127 59.56190129 101 70 C101.91926038 71.11132438 102.84275412 72.2191551 103.76953125 73.32421875 C124.24648799 97.90189245 140.10959125 128.35905499 146 160 C146.1848999 160.96164062 146.3697998 161.92328125 146.56030273 162.9140625 C148.52550311 174.97770312 148.26695793 187.09935344 148.20581055 199.28833008 C148.18752414 203.05752337 148.18530172 206.82646998 148.18554688 210.59570312 C148.12348318 254.516471 137.43374743 302.28284771 105.75 335.01171875 C103.79138373 336.97682919 103.79138373 336.97682919 103 340 C114.07193656 338.70743017 124.42301177 335.28952171 135 331.9375 C136.87073659 331.35118602 138.74166947 330.76549798 140.61279297 330.18041992 C152.58772367 326.42811943 164.54637252 322.62094944 176.47265625 318.71655273 C194.2502406 312.9228649 212.31861942 311.01026931 230.98828125 310.42578125 C232.18602676 310.38612244 233.38377228 310.34646362 234.61781311 310.30560303 C247.12850213 309.92001055 259.63786032 309.7791618 272.15405273 309.75976562 C275.93300002 309.75001162 279.71141202 309.71878447 283.49023438 309.6875 C296.26792719 309.63089069 308.90645761 310.02570822 321.62890625 311.265625 C322.79534164 311.37396667 323.96177704 311.48230835 325.16355896 311.59393311 C334.46675157 312.60746211 345.10900365 314.10900365 352 321 C345.71420483 321.08817749 339.62354156 320.76542195 333.375 320.125 C331.58827875 319.94825922 329.80149169 319.7721828 328.01464844 319.59667969 C324.33825629 319.23539217 320.66451788 318.85717667 316.99169922 318.46142578 C301.65524326 316.88922516 286.36450125 316.68873576 270.96484375 316.73925781 C267.44327045 316.75069613 263.92199781 316.74383001 260.40043449 316.73239708 C239.97947878 316.67575609 220.40781239 317.81406845 200.375 321.875 C199.02048026 322.14480163 197.66590589 322.41432911 196.3112793 322.68359375 C183.26372049 325.29351792 170.4012154 328.21095568 157.625 331.9375 C156.82811768 332.16630859 156.03123535 332.39511719 155.21020508 332.63085938 C150.8530723 333.94056992 146.80797168 335.50992161 142.69921875 337.46875 C136.70120596 340.26981777 130.59110219 341.94542874 124.1875 343.5625 C122.0140179 344.1251251 119.84084173 344.6889333 117.66796875 345.25390625 C116.57105713 345.5365332 115.47414551 345.81916016 114.34399414 346.11035156 C110.98452261 347.00411766 107.65454309 347.97364151 104.3203125 348.95703125 C95.85908538 351.395569 87.28799558 353.25551966 78.6875 355.125 C77.09301006 355.47485549 75.49860854 355.82511423 73.90429688 356.17578125 C71.60099225 356.68237326 69.29744453 357.18756606 66.99264526 357.68731689 C63.46789596 358.45166533 59.95875631 359.25457768 56.45703125 360.1171875 C43.74843509 362.89479644 30.78248957 363.34981178 17.82397461 363.31567383 C15.30344276 363.31248855 12.78406226 363.33619012 10.26367188 363.36132812 C0.38068038 363.39906099 -8.39436118 362.47258168 -18 360 C-19.95723086 359.59875093 -21.91541865 359.202108 -23.875 358.8125 C-37.22452743 355.36402021 -48.64057284 347.86927443 -59 339 C-59.73605469 338.37738281 -60.47210937 337.75476563 -61.23046875 337.11328125 C-76.0394227 323.48667891 -85.31997011 302.86669815 -86.23828125 282.90625 C-86.67634832 265.45065838 -82.80585067 248.15361925 -70.39453125 235.1015625 C-56.25916677 222.69564718 -40.24431542 219.91515633 -22 221 C-3.83895583 222.50262562 11.65252894 230.04928004 26 241 C25.5978125 239.4840625 25.5978125 239.4840625 25.1875 237.9375 C24.47455674 235.1687409 23.90891385 232.44514425 23.4453125 229.62109375 C21.39450372 217.48081217 17.80075291 205.87775357 7.75390625 197.921875 C-14.36238617 182.48752625 -37.0721608 171.01218516 -64.69140625 174.4609375 C-105.15672586 182.43208968 -142.81627873 208.33698138 -174.73583984 233.36083984 C-185.31240052 241.63922907 -196.22207629 248.55728774 -208 255 C-209.55557617 255.85682373 -209.55557617 255.85682373 -211.14257812 256.73095703 C-234.94750903 269.80558229 -258.93609958 282.00797476 -284.57373047 291.12011719 C-287.56407477 292.20456082 -290.49753412 293.41143219 -293.4375 294.625 C-302.70907156 298.21959325 -312.4281289 300.57715705 -322.01318359 303.17871094 C-324.59635078 303.88900801 -327.16882535 304.62475882 -329.73828125 305.3828125 C-341.24926996 308.75791194 -352.90843105 311.14673654 -364.69140625 313.37280273 C-367.04471836 313.81891097 -369.39610376 314.27523552 -371.74609375 314.73852539 C-381.3732793 316.62183899 -391.00322531 318.08127015 -400.75 319.1875 C-401.50571289 319.2743808 -402.26142578 319.3612616 -403.04003906 319.45077515 C-415.36786031 320.83389734 -427.59793131 321.35884247 -440 321.3125 C-440.78161499 321.30995209 -441.56322998 321.30740417 -442.36853027 321.30477905 C-456.04631292 321.22749629 -456.04631292 321.22749629 -460 320 C-460 319.34 -460 318.68 -460 318 C-453.84399618 316.5491458 -447.69851664 315.39088608 -441.4375 314.5 C-440.53765381 314.37109375 -439.63780762 314.2421875 -438.71069336 314.109375 C-431.84208792 313.16580424 -424.97404874 312.52997868 -418.0625 312 C-406.6288159 311.11367498 -395.33142683 309.76038204 -384 308 C-382.91122559 307.83129395 -381.82245117 307.66258789 -380.70068359 307.48876953 C-353.8297544 303.25036913 -327.63883827 297.23099562 -301.74829102 288.87329102 C-299.09528054 288.03027614 -296.43256295 287.23362519 -293.76171875 286.44921875 C-289.4513585 285.16427586 -285.24774438 283.70779419 -281.0625 282.0625 C-280.09473633 281.70381836 -280.09473633 281.70381836 -279.10742188 281.33789062 C-275.34924636 279.8618818 -272.91778244 278.62171144 -271 275 C-270.0766638 266.82187936 -272.58114898 259.75091678 -275 252 C-276.54450383 247.02486106 -277.54430377 242.16591625 -278.10546875 236.99609375 C-278.18935349 236.22462509 -278.27323822 235.45315643 -278.35966492 234.65830994 C-279.26808304 225.46266252 -279.33622475 216.26592526 -279.31567383 207.0324707 C-279.31250673 204.06880064 -279.33611165 201.10612649 -279.36132812 198.14257812 C-279.41775635 181.54475357 -277.51798701 165.73602239 -272.9375 149.75 C-272.4880603 148.17569214 -272.4880603 148.17569214 -272.02954102 146.56958008 C-268.66538833 135.25240399 -264.0631207 124.64621957 -259 114 C-258.18837402 112.2665332 -258.18837402 112.2665332 -257.36035156 110.49804688 C-250.8724027 96.67745935 -244.46752548 83.28648375 -234 72 C-233.45827148 71.39929688 -232.91654297 70.79859375 -232.35839844 70.1796875 C-228.00510188 65.35517039 -223.53100137 60.65747734 -219 56 C-218.2570166 55.23510254 -217.5140332 54.47020508 -216.74853516 53.68212891 C-201.82482553 38.38195404 -186.93448974 26.348728 -168.26171875 15.89453125 C-165.01314823 14.06854246 -165.01314823 14.06854246 -162.14453125 12.00390625 C-158.254675 9.52502892 -154.27813119 7.82176176 -150 6.125 C-149.1327832 5.77985352 -148.26556641 5.43470703 -147.37207031 5.07910156 C-138.26395284 1.55894604 -128.95423872 -0.98256893 -119.49365234 -3.359375 C-117.27006547 -3.93061956 -115.06708813 -4.54497172 -112.86328125 -5.1875 C-76.56236258 -15.3353416 -35.29835053 -11.75515326 0 0 Z M-110 1 C-111.47025635 1.3700415 -111.47025635 1.3700415 -112.97021484 1.74755859 C-126.57976369 5.23504563 -139.42869021 9.73017799 -152 16 C-152.73331543 16.36383789 -153.46663086 16.72767578 -154.22216797 17.10253906 C-173.96203269 26.99610941 -191.14759647 39.71308054 -207 55 C-207.8362793 55.8034082 -207.8362793 55.8034082 -208.68945312 56.62304688 C-215.99939666 63.68121279 -222.81349863 70.91659229 -229 79 C-229.43022461 79.55913086 -229.86044922 80.11826172 -230.30371094 80.69433594 C-245.32255644 100.31796586 -257.7160896 122.2878761 -265 146 C-265.32871094 146.99 -265.65742188 147.98 -265.99609375 149 C-268.83858423 159.17891744 -269.30324017 169.78572721 -269.265625 180.2890625 C-269.26849518 182.12408829 -269.26849518 182.12408829 -269.27142334 183.9961853 C-269.27277484 186.57265429 -269.26915141 189.14913032 -269.26074219 191.72558594 C-269.25015917 195.56722305 -269.26060577 199.40837841 -269.2734375 203.25 C-269.28115128 215.98703964 -268.98492376 228.65833826 -268.10546875 241.3671875 C-267.98845612 243.08743637 -267.98845612 243.08743637 -267.86907959 244.84243774 C-266.88162194 259.49177906 -266.88162194 259.49177906 -260 272 C-250.79231493 272.62424984 -242.83923531 267.2599355 -235 263 C-234.36175293 262.65936523 -233.72350586 262.31873047 -233.06591797 261.96777344 C-209.87300678 249.56212289 -188.34758827 234.29226275 -167 219 C-165.33386961 217.80904759 -163.66768369 216.61817199 -162.00048828 215.42871094 C-160.50534448 214.36090748 -159.01178674 213.29088259 -157.51904297 212.21972656 C-144.85095706 203.15465636 -132.04755158 194.82951933 -118.38354492 187.34594727 C-115.88875414 185.93718136 -113.46451441 184.43799155 -111.03125 182.92578125 C-106.14342291 179.97550117 -101.15606601 177.79859974 -95.8125 175.8125 C-94.45209595 175.29997681 -94.45209595 175.29997681 -93.06420898 174.77709961 C-85.46036793 171.99785713 -77.99921584 170.20837093 -70 169 C-69.11828125 168.81953125 -68.2365625 168.6390625 -67.328125 168.453125 C-44.98672885 165.41133867 -25.39690515 168.96512535 -6 180 C-5.00226563 180.556875 -4.00453125 181.11375 -2.9765625 181.6875 C12.97553895 191.19476963 25.9530744 205.92760728 31.375 223.9375 C32.75739754 230.57021547 32.97550326 238.48874124 31 245 C24.13618091 246.84795129 20.30812886 245.21096241 14.1484375 241.890625 C10.01037625 239.40573462 6.06869931 236.68960949 2.1796875 233.83203125 C-6.80472295 228.65550975 -16.04095932 228.49768647 -26.15869141 228.55395508 C-28.49600853 228.56248543 -30.83089037 228.53358829 -33.16796875 228.50195312 C-45.84708098 228.44024239 -54.38728947 230.57939953 -63.69140625 239.53515625 C-74.82845443 251.42598096 -82.55611464 266.74913092 -82.40234375 283.1171875 C-80.78511231 298.724256 -69.95483491 314.47747456 -60 326 C-59.38640625 326.75796875 -58.7728125 327.5159375 -58.140625 328.296875 C-44.46936602 344.67978865 -26.55334814 351.75222259 -5.76689148 353.78089905 C-1.25209599 354.13841072 3.25399517 354.20169565 7.78125 354.23828125 C8.78520309 354.2480751 9.78915619 354.25786896 10.8235321 354.26795959 C55.2871797 356.29234658 55.2871797 356.29234658 93.640625 337.46484375 C94.41921875 336.65144531 95.1978125 335.83804687 96 335 C96.81984375 334.17628906 97.6396875 333.35257812 98.484375 332.50390625 C115.50847215 314.71319603 125.53251044 291.7614167 134.1875 269 C134.73096069 267.57892944 134.73096069 267.57892944 135.28540039 266.12915039 C140.73241252 251.23994665 141.15462202 235.87946489 141.16796875 220.171875 C141.17119522 218.77003956 141.17456024 217.36820443 141.17805481 215.96636963 C141.18399609 213.04511741 141.18589992 210.12389454 141.18530273 207.20263672 C141.18520139 203.50741115 141.19884749 199.8123789 141.21607494 196.11719894 C141.22733599 193.22565898 141.22921768 190.33416369 141.22869301 187.44260406 C141.2304056 185.43346216 141.24115144 183.42433419 141.25224304 181.41522217 C141.15156237 140.13647758 119.6512616 100.61576179 93 70 C92.23300781 69.10410156 91.46601562 68.20820313 90.67578125 67.28515625 C88.50048527 64.8042734 86.26973278 62.39480719 84 60 C83.51515137 59.48260254 83.03030273 58.96520508 82.53076172 58.43212891 C68.55624907 43.61171179 52.70478631 32.008111 35 22 C34.36868164 21.64099609 33.73736328 21.28199219 33.08691406 20.91210938 C13.72886507 10.10136765 -8.17213374 2.692828 -30 -1 C-31.07378906 -1.18256348 -32.14757812 -1.36512695 -33.25390625 -1.55322266 C-44.00764699 -3.18871167 -54.64071494 -3.40009962 -65.5 -3.375 C-66.42786316 -3.37412384 -67.35572632 -3.37324768 -68.31170654 -3.37234497 C-82.56434555 -3.32799442 -96.14940396 -2.61709995 -110 1 Z " fill="#080808" transform="translate(773,118)"/>
<path d="M0 0 C1.25611084 -0.02247803 2.51222168 -0.04495605 3.80639648 -0.06811523 C16.95356589 -0.03418818 27.09672703 3.12614421 36.5625 12.4375 C47.94423504 25.03932915 47.94423504 25.03932915 47.5625 33.4375 C43.04776251 35.17081745 39.25845773 35.69760106 34.43359375 35.74609375 C33.05403278 35.7712836 31.67447558 35.79668112 30.29492188 35.82226562 C28.15846025 35.85074529 26.02206511 35.87480383 23.88549805 35.89379883 C10.20366544 36.03865593 -2.03696217 37.23072986 -13.4375 45.4375 C-14.37335938 46.09878906 -14.37335938 46.09878906 -15.328125 46.7734375 C-26.71578319 55.64760357 -34.36669489 70.30823746 -36.4375 84.4375 C-38.00208082 102.08249485 -33.9638271 117.66583271 -22.5 131.5 C-6.95293171 147.88041198 18.10733934 157.23227791 40.44921875 158.37890625 C41.47660156 158.39824219 42.50398438 158.41757812 43.5625 158.4375 C44.29033691 158.46183105 45.01817383 158.48616211 45.76806641 158.51123047 C86.32355665 159.78576374 121.81830803 147.17433897 159.1875 132.73339844 C162.38916972 131.50405361 165.59827039 130.29762679 168.8125 129.1015625 C169.76914551 128.74392822 170.72579102 128.38629395 171.71142578 128.01782227 C173.45821967 127.36562956 175.20647078 126.71731865 176.95654297 126.07397461 C180.65229045 124.68489922 184.09791276 123.21462798 187.5078125 121.21484375 C190.5625 119.4375 190.5625 119.4375 192.5625 119.4375 C192.5625 118.7775 192.5625 118.1175 192.5625 117.4375 C188.45746518 118.3712244 184.35364395 119.31018333 180.25 120.25 C179.10208984 120.51103516 177.95417969 120.77207031 176.77148438 121.04101562 C171.41436554 122.27026952 166.09101064 123.54220808 160.80078125 125.03515625 C155.91973338 126.38979263 151.07172403 127.33025463 146.0625 128.0625 C145.31742188 128.18367187 144.57234375 128.30484375 143.8046875 128.4296875 C128.43071884 130.7332789 112.63936591 130.67278031 97.125 130.6875 C95.85346573 130.68950912 95.85346573 130.68950912 94.5562439 130.69155884 C81.97958124 130.6872657 69.88699023 130.14134224 57.5625 127.4375 C56.44359375 127.23253906 55.3246875 127.02757812 54.171875 126.81640625 C41.98412871 124.30073041 31.75360628 117.61441524 22.5625 109.4375 C21.53382813 108.53257812 21.53382813 108.53257812 20.484375 107.609375 C7.68627401 95.6174536 -1.64487637 78.85980391 -2.6171875 61.16796875 C-2.62382554 58.58245086 -2.57717196 56.0188448 -2.4375 53.4375 C-1.1175 53.4375 0.2025 53.4375 1.5625 53.4375 C3.91862406 57.36437343 4.98729276 61.01502184 5.9375 65.5 C8.77044085 78.23378007 13.63935863 88.23471795 21.5625 98.4375 C22.07039063 99.11554688 22.57828125 99.79359375 23.1015625 100.4921875 C31.76467012 110.54509848 47.12634729 115.57209405 59.5625 118.4375 C60.67496094 118.72238281 61.78742188 119.00726563 62.93359375 119.30078125 C75.39216076 122.39708 87.73013697 122.64031567 100.5 122.625 C101.27263184 122.62506042 102.04526367 122.62512085 102.84130859 122.62518311 C116.61972729 122.6098468 130.14433333 122.02571555 143.71484375 119.48828125 C150.32186254 118.26209528 156.96352851 117.37399825 163.625 116.5 C164.93194824 116.32670166 166.23889648 116.15340332 167.58544922 115.97485352 C177.17697108 114.7115831 186.78209816 113.59088065 196.39648438 112.51635742 C203.95439411 111.65862638 211.47196369 110.62762441 218.98486328 109.43920898 C224.16697883 108.62112899 229.34444181 107.98568054 234.5625 107.4375 C234.07179217 111.97654743 234.07179217 111.97654743 231.83398438 114.00195312 C229.38290195 115.55100349 227.25732039 116.31230413 224.46875 117.09375 C223.45377441 117.38781738 222.43879883 117.68188477 221.39306641 117.98486328 C220.29397949 118.2992334 219.19489258 118.61360352 218.0625 118.9375 C204.87756808 122.85754312 192.21327791 127.7261446 179.46484375 132.86767578 C103.32769137 163.54427188 103.32769137 163.54427188 73.96875 163.5703125 C73.26796829 163.57176773 72.56718658 163.57322296 71.84516907 163.57472229 C69.58422328 163.57695148 67.32343059 163.57071852 65.0625 163.5625 C63.89948868 163.55967514 63.89948868 163.55967514 62.71298218 163.55679321 C29.30656055 163.46174565 -1.4754689 163.27133882 -27.140625 138.8671875 C-40.81025724 124.40713435 -46.08721445 105.30952407 -45.7109375 85.671875 C-44.86582727 67.24679845 -33.96814582 53.26365695 -21 41.1875 C-16.45952976 37.29006699 -11.75403805 34.17679029 -6.4375 31.4375 C-5.51839844 30.94894531 -4.59929687 30.46039063 -3.65234375 29.95703125 C9.44880793 23.92204912 25.0911782 24.68370953 38.45703125 29.5625 C39.15183594 29.85125 39.84664062 30.14 40.5625 30.4375 C34.4549602 18.90103593 26.13036834 13.70920357 14.0625 9.453125 C8.1024865 7.7236568 2.31218993 7.26349414 -3.875 7.1875 C-5.11121094 7.16171875 -6.34742188 7.1359375 -7.62109375 7.109375 C-20.58471745 7.61738136 -33.01616889 11.5845264 -45.1875 15.75 C-46.33103943 16.13558578 -46.33103943 16.13558578 -47.49768066 16.52896118 C-63.31112666 21.86407218 -78.84049802 27.88689048 -94.35316467 34.03215027 C-126.75972366 46.86896467 -158.99138877 56.78216831 -193.4375 62.4375 C-194.79855035 62.68152088 -196.15922199 62.92766239 -197.51953125 63.17578125 C-222.62472923 67.68822916 -247.9304799 69.19307216 -273.36572266 70.34179688 C-276.31724709 70.4781388 -279.2679039 70.63102511 -282.21875 70.78125 C-296.62197959 71.46327209 -311.02083808 71.53984155 -325.4375 71.5625 C-326.38818359 71.56517883 -327.33886719 71.56785767 -328.31835938 71.57061768 C-338.20288532 71.59178048 -348.06425906 71.49517438 -357.9375 70.9921875 C-358.70868164 70.95344513 -359.47986328 70.91470276 -360.27441406 70.87478638 C-366.90888064 70.49602462 -373.14002408 69.53665864 -379.4375 67.4375 C-379.4375 66.4475 -379.4375 65.4575 -379.4375 64.4375 C-374.29433584 63.62275387 -369.20771759 63.19242971 -364.00390625 62.97265625 C-363.1662825 62.93510223 -362.32865875 62.89754822 -361.46565247 62.8588562 C-358.64394557 62.73465588 -355.82201943 62.61687258 -353 62.5 C-352.0137262 62.45803497 -351.02745239 62.41606995 -350.0112915 62.37283325 C-326.94857058 61.39922177 -303.87472821 60.78674548 -280.79963112 60.19393349 C-248.9827048 59.43626462 -248.9827048 59.43626462 -217.25 57.125 C-215.94699951 56.99673828 -214.64399902 56.86847656 -213.30151367 56.73632812 C-204.58515255 55.85426693 -195.9115623 54.7522749 -187.25 53.4375 C-186.23075439 53.28369873 -185.21150879 53.12989746 -184.16137695 52.97143555 C-178.05630796 51.99722778 -172.11150437 50.6732082 -166.12719727 49.12451172 C-161.90024552 48.04484918 -157.62669615 47.22198846 -153.34765625 46.37890625 C-141.42654678 43.66647352 -130.11730396 39.11575686 -118.76541138 34.6696167 C-113.89840813 32.76420318 -109.02479745 30.87579647 -104.15234375 28.984375 C-103.16769638 28.6016745 -102.18304901 28.218974 -101.16856384 27.82467651 C-85.96672322 21.91823138 -70.73432004 16.09379982 -55.4375 10.4375 C-54.3438916 10.03257324 -53.2502832 9.62764648 -52.12353516 9.21044922 C-34.66449875 2.82606793 -18.61232349 0.21207779 0 0 Z " fill="#080808" transform="translate(618.4375,390.5625)"/>
<path d="M0 0 C-0.33 0.99 -0.66 1.98 -1 3 C-6.59537044 5.56594419 -12.40971237 6.89524416 -18.38769531 8.29418945 C-49.43123373 15.55974387 -78.27821672 28.31355859 -107.06640625 41.76953125 C-176.12082083 74.00258785 -176.12082083 74.00258785 -203 72 C-200.50041779 68.25062669 -198.01604649 67.73266731 -193.9140625 66.46875 C-192.42472256 65.98877186 -190.9353834 65.50879129 -189.44604492 65.02880859 C-188.66006927 64.77991882 -187.87409363 64.53102905 -187.06430054 64.27459717 C-182.93838196 62.96441632 -178.82600886 61.61347326 -174.71484375 60.2578125 C-173.88642471 59.98466217 -173.05800568 59.71151184 -172.20448303 59.43008423 C-150.11857594 52.09036994 -128.80912257 42.63771019 -107.58984375 33.12890625 C-15.87070489 -7.93535245 -15.87070489 -7.93535245 0 0 Z " fill="#080808" transform="translate(953,487)"/>
<path d="M0 0 C-2.90002596 3.16097007 -4.67585902 3.58297607 -9 4 C-11.24021766 4.09354636 -13.47869039 4.14507727 -15.72045898 4.18798828 C-40.15274881 4.74561265 -64.76448064 8.31737483 -88.625 13.5 C-90.52366821 13.90822998 -90.52366821 13.90822998 -92.46069336 14.32470703 C-101.26116139 16.33465769 -109.89917128 18.94958564 -118 23 C-120.55157655 23.0716735 -123.07472971 23.09308442 -125.625 23.0625 C-126.33140625 23.05798828 -127.0378125 23.05347656 -127.765625 23.04882812 C-129.51045275 23.03703875 -131.255237 23.01910324 -133 23 C-130.81310256 17.45045381 -126.18285312 16.25321119 -121 14 C-110.46276983 9.87522898 -99.41957164 7.71844803 -88.375 5.4375 C-86.94071152 5.14010422 -86.94071152 5.14010422 -85.47744751 4.83670044 C-58.39132047 -0.74530577 -27.38677291 -6.89007665 0 0 Z " fill="#0A0A0A" transform="translate(1036,458)"/>
<path d="M0 0 C5.28 0 10.56 0 16 0 C16 1.32 16 2.64 16 4 C16.46601063 9.03291478 17.66091973 12.5475952 20 17 C20.38671875 15.92878906 20.7734375 14.85757813 21.171875 13.75390625 C21.69708978 12.35645978 22.22317694 10.95934096 22.75 9.5625 C23.00265625 8.85544922 23.2553125 8.14839844 23.515625 7.41992188 C24.296875 5.37890625 24.296875 5.37890625 26 2 C28.203125 1.02734375 28.203125 1.02734375 30 1 C32.37482656 6.31623611 34.72013426 11.6423155 37 17 C39.8830869 12.67536964 41.4144605 9.24983306 41 4 C40.505 2.515 40.505 2.515 40 1 C43.96 1 47.92 1 52 1 C52 1.99 52 2.98 52 4 C50.94232422 4.93392578 50.94232422 4.93392578 49.86328125 5.88671875 C45.37421558 10.10976571 43.52448264 16.24305539 41.1875 21.8125 C40.68541016 22.98232422 40.18332031 24.15214844 39.66601562 25.35742188 C38.43324255 28.23389237 37.21170615 31.11460685 36 34 C34.68 34 33.36 34 32 34 C30.99539469 31.87717331 29.99644398 29.75166979 29 27.625 C28.443125 26.44164062 27.88625 25.25828125 27.3125 24.0390625 C26 21 26 21 26 19 C25.34 19 24.68 19 24 19 C23.81824219 19.58007812 23.63648438 20.16015625 23.44921875 20.7578125 C21.9581894 25.39147293 20.31666424 29.69762355 18 34 C16.68 34 15.36 34 14 34 C13.68772461 33.26885986 13.37544922 32.53771973 13.05371094 31.78442383 C11.62715851 28.45694542 10.18871977 25.13473458 8.75 21.8125 C8.25886719 20.66201172 7.76773438 19.51152344 7.26171875 18.32617188 C6.77832031 17.21435547 6.29492188 16.10253906 5.796875 14.95703125 C5.35698242 13.93585205 4.91708984 12.91467285 4.46386719 11.86254883 C3.08622246 8.89614609 3.08622246 8.89614609 0.76269531 6.37768555 C0.18100586 5.59304932 -0.40068359 4.80841309 -1 4 C-0.67 2.68 -0.34 1.36 0 0 Z " fill="#0A0A0A" transform="translate(734,580)"/>
<path d="M0 0 C1.2271875 0.02707031 2.454375 0.05414063 3.71875 0.08203125 C4.6365625 0.11683594 5.554375 0.15164063 6.5 0.1875 C5.5 3.1875 5.5 3.1875 3.9609375 4.21484375 C-30.37921858 19.19846991 -82.34663789 26.14490932 -119.5 22.1875 C-120.16 21.8575 -120.82 21.5275 -121.5 21.1875 C-121.005 19.7025 -121.005 19.7025 -120.5 18.1875 C-114.33945045 15.24235539 -107.77269738 14.80863279 -101.0625 14.75 C-79.19245891 14.14271375 -56.97507433 11.31293566 -35.5 7.1875 C-34.6642041 7.0328125 -33.8284082 6.878125 -32.96728516 6.71875 C-30.26783429 6.21843549 -27.57110949 5.70549967 -24.875 5.1875 C-24.05652588 5.03345703 -23.23805176 4.87941406 -22.39477539 4.72070312 C-18.55288504 3.95809995 -15.01143491 3.06068997 -11.3828125 1.57421875 C-7.52507045 0.04593351 -4.16698408 -0.12020146 0 0 Z " fill="#0C0C0C" transform="translate(471.5,452.8125)"/>
<path d="M0 0 C0.83595703 0.00902344 1.67191406 0.01804687 2.53320312 0.02734375 C4.58475969 0.05079011 6.63616777 0.08665734 8.6875 0.125 C8.5225 0.74375 8.3575 1.3625 8.1875 2 C7.66980917 4.20018601 7.66509624 5.87158855 7.86328125 8.11328125 C8.1107997 12.32109491 8.09003246 14.50172393 5.75 18.125 C1.76005888 20.73067584 -1.62518454 21.01266782 -6.3125 21.125 C-6.3125 21.785 -6.3125 22.445 -6.3125 23.125 C-5.3225 22.795 -4.3325 22.465 -3.3125 22.125 C-1.81573294 22.00840402 -0.31374939 21.95001041 1.1875 21.9375 C1.9609375 21.92332031 2.734375 21.90914062 3.53125 21.89453125 C5.6875 22.125 5.6875 22.125 8.6875 24.125 C9.08400874 27.23098516 9.29457872 29.23035768 7.5 31.875 C1.20235735 36.21820183 -5.95922378 35.82162617 -13.3125 35.125 C-16.28682584 34.16804299 -17.1412123 33.48787191 -19.3125 31.125 C-19.75 28.4375 -19.75 28.4375 -19.3125 26.125 C-18.3125 25.125 -18.3125 25.125 -16.0625 24.75 C-12.23606637 25.2717864 -10.98982949 27.44767051 -8.3125 30.125 C-5.60086222 30.54486946 -5.60086222 30.54486946 -3.3125 30.125 C-2.9825 29.135 -2.6525 28.145 -2.3125 27.125 C-6.7675 26.135 -6.7675 26.135 -11.3125 25.125 C-11.3125 23.805 -11.3125 22.485 -11.3125 21.125 C-12.79462671 19.6305668 -12.79462671 19.6305668 -14.75 18.5 C-18.22818047 16.29363905 -18.22818047 16.29363905 -19.3125 14.125 C-19.80730737 9.75420155 -19.87062383 7.84258779 -17.125 4.3125 C-11.5248024 -0.04320925 -6.84231142 -0.14041049 0 0 Z " fill="#0E0E0E" transform="translate(684.3125,586.875)"/>
<path d="M0 0 C8.58 0 17.16 0 26 0 C29.375 6.75 29.375 6.75 29 11 C26.21801919 10.60257417 25.16965665 10.18783415 23.25 8.0625 C20.06369031 5.14171612 17.20915544 4.84183109 13 4 C13 7.3 13 10.6 13 14 C14.093125 13.505 15.18625 13.01 16.3125 12.5 C20 11 20 11 23 11 C23 14.63 23 18.26 23 22 C19.5879008 21.1469752 16.32514673 20.13357275 13 19 C13 22.63 13 26.26 13 30 C19.15803631 27.66741049 22.88296274 25.71427276 26.80859375 20.390625 C27.20175781 19.93171875 27.59492187 19.4728125 28 19 C28.66 19 29.32 19 30 19 C30.36789278 25.00891545 29.56376546 27.0178806 27 33 C18.09 33 9.18 33 0 33 C0.33 31.68 0.66 30.36 1 29 C1.0917649 27.09544541 1.13066386 25.18801279 1.1328125 23.28125 C1.13410156 22.18425781 1.13539063 21.08726562 1.13671875 19.95703125 C1.13285156 18.81621094 1.12898438 17.67539062 1.125 16.5 C1.12886719 15.35917969 1.13273437 14.21835937 1.13671875 13.04296875 C1.13542969 11.94597656 1.13414062 10.84898437 1.1328125 9.71875 C1.13168457 8.71779297 1.13055664 7.71683594 1.12939453 6.68554688 C1.07561131 3.74834292 1.07561131 3.74834292 0 0 Z " fill="#080808" transform="translate(489,581)"/>
<path d="M0 0 C0.33 0.99 0.66 1.98 1 3 C1.680625 2.34 2.36125 1.68 3.0625 1 C6.73085974 -1.49760663 8.64197392 -1.6338947 13 -1 C15.171875 0.5078125 15.171875 0.5078125 17 3 C17.42745634 5.90205054 17.65007198 8.47058551 17.6875 11.375 C17.73009828 12.86206736 17.77561921 14.34905418 17.82421875 15.8359375 C17.84532715 16.54202148 17.86643555 17.24810547 17.88818359 17.97558594 C18.03835021 20.69432302 18.47874457 23.33015509 19 26 C17.02090602 26.02686553 15.04171029 26.04633375 13.0625 26.0625 C11.96035156 26.07410156 10.85820313 26.08570313 9.72265625 26.09765625 C7 26 7 26 6 25 C5.84417697 23.65984779 5.74955858 22.31241097 5.68359375 20.96484375 C5.64169922 20.15595703 5.59980469 19.34707031 5.55664062 18.51367188 C5.51732422 17.66353516 5.47800781 16.81339844 5.4375 15.9375 C5.39431641 15.08349609 5.35113281 14.22949219 5.30664062 13.34960938 C5.20023298 11.23327963 5.09958269 9.11666187 5 7 C4.01 7 3.02 7 2 7 C0.65586587 9.68826826 0.86760137 11.81235402 0.875 14.8125 C0.87242187 15.85019531 0.86984375 16.88789062 0.8671875 17.95703125 C0.9374992 21.35124212 0.9374992 21.35124212 2 26 C-2.95 26 -7.9 26 -13 26 C-12.67 24.68 -12.34 23.36 -12 22 C-11.93088685 19.50086867 -11.91535443 16.99998872 -11.9375 14.5 C-11.94652344 13.1903125 -11.95554687 11.880625 -11.96484375 10.53125 C-11.97644531 9.3659375 -11.98804688 8.200625 -12 7 C-12 5.68 -12 4.36 -12 3 C-10.5682384 2.30062798 -9.12932968 1.61587282 -7.6875 0.9375 C-6.48673828 0.36322266 -6.48673828 0.36322266 -5.26171875 -0.22265625 C-3 -1 -3 -1 0 0 Z " fill="#090909" transform="translate(593,588)"/>
<path d="M0 0 C2 0.25 2 0.25 4 1 C4.33 1.99 4.66 2.98 5 4 C5.70125 3.34 6.4025 2.68 7.125 2 C10 0 10 0 13 -0.5625 C17.16133745 0.21775077 18.4093608 1.67162911 21 5 C21.71111113 8.02185949 21.74500379 10.96735006 21.75 14.0625 C21.78331176 15.6576209 21.81966609 17.25268178 21.859375 18.84765625 C21.86420898 19.54898682 21.86904297 20.25031738 21.87402344 20.97290039 C22.00544169 23.08756277 22.42557778 24.96468389 23 27 C21.02090602 27.02686553 19.04171029 27.04633375 17.0625 27.0625 C15.96035156 27.07410156 14.85820313 27.08570313 13.72265625 27.09765625 C11 27 11 27 10 26 C9.76298761 23.14122091 9.57780818 20.30116703 9.4375 17.4375 C9.39431641 16.63119141 9.35113281 15.82488281 9.30664062 14.99414062 C9.20024738 12.99631195 9.09959112 10.9981793 9 9 C7.68 9 6.36 9 5 9 C4.97292861 11.24993359 4.95357171 13.49996095 4.9375 15.75 C4.92589844 17.00296875 4.91429687 18.2559375 4.90234375 19.546875 C4.87978606 23.12834918 4.87978606 23.12834918 6 27 C1.05 27 -3.9 27 -9 27 C-8.67 25.68 -8.34 24.36 -8 23 C-7.90602683 20.50141937 -7.87007807 18.00034235 -7.875 15.5 C-7.87242187 14.1903125 -7.86984375 12.880625 -7.8671875 11.53125 C-7.97075245 8.77764076 -8.16541986 6.59647153 -9 4 C-8.43410156 3.79503906 -7.86820313 3.59007812 -7.28515625 3.37890625 C-6.55167969 3.10949219 -5.81820312 2.84007812 -5.0625 2.5625 C-4.33160156 2.29566406 -3.60070312 2.02882813 -2.84765625 1.75390625 C-1.01694322 1.14613052 -1.01694322 1.14613052 0 0 Z " fill="#060606" transform="translate(640,587)"/>
<path d="M0 0 C3.0694094 1.90515066 4.69826993 3.91917731 5.9609375 7.234375 C6.22840776 9.72708756 6.40758698 12.23003179 6.5234375 14.734375 C6.71939034 18.79739711 6.97214419 22.27920176 7.9609375 26.234375 C3.6709375 26.234375 -0.6190625 26.234375 -5.0390625 26.234375 C-5.0390625 25.244375 -5.0390625 24.254375 -5.0390625 23.234375 C-5.8846875 23.729375 -6.7303125 24.224375 -7.6015625 24.734375 C-11.48220713 26.4277472 -13.85089064 26.77728617 -18.0390625 26.234375 C-20.4765625 24.609375 -20.4765625 24.609375 -22.0390625 22.234375 C-22.67053517 18.52447305 -22.45470986 16.87314897 -20.39453125 13.70703125 C-17.68403299 10.86168233 -15.52822501 9.9259874 -11.8515625 8.609375 C-8.69207151 7.52718404 -8.69207151 7.52718404 -6.0390625 6.234375 C-5.7090625 5.244375 -5.3790625 4.254375 -5.0390625 3.234375 C-10.13498489 4.36508435 -10.13498489 4.36508435 -14.2265625 7.421875 C-14.8246875 8.02 -15.4228125 8.618125 -16.0390625 9.234375 C-18.2890625 8.984375 -18.2890625 8.984375 -20.0390625 8.234375 C-20.4140625 5.984375 -20.4140625 5.984375 -20.0390625 3.234375 C-14.90724761 -2.0399903 -6.78926055 -2.54922427 0 0 Z " fill="#0C0C0C" transform="translate(809.0390625,587.765625)"/>
<path d="M0 0 C3.0694094 1.90515066 4.69826993 3.91917731 5.9609375 7.234375 C6.22840776 9.72708756 6.40758698 12.23003179 6.5234375 14.734375 C6.71939034 18.79739711 6.97214419 22.27920176 7.9609375 26.234375 C3.6709375 26.234375 -0.6190625 26.234375 -5.0390625 26.234375 C-5.0390625 25.244375 -5.0390625 24.254375 -5.0390625 23.234375 C-5.8846875 23.729375 -6.7303125 24.224375 -7.6015625 24.734375 C-11.48220713 26.4277472 -13.85089064 26.77728617 -18.0390625 26.234375 C-20.4765625 24.609375 -20.4765625 24.609375 -22.0390625 22.234375 C-22.67053517 18.52447305 -22.45470986 16.87314897 -20.39453125 13.70703125 C-17.68403299 10.86168233 -15.52822501 9.9259874 -11.8515625 8.609375 C-8.69207151 7.52718404 -8.69207151 7.52718404 -6.0390625 6.234375 C-5.7090625 5.244375 -5.3790625 4.254375 -5.0390625 3.234375 C-10.13498489 4.36508435 -10.13498489 4.36508435 -14.2265625 7.421875 C-14.8246875 8.02 -15.4228125 8.618125 -16.0390625 9.234375 C-18.2890625 8.984375 -18.2890625 8.984375 -20.0390625 8.234375 C-20.4140625 5.984375 -20.4140625 5.984375 -20.0390625 3.234375 C-14.90724761 -2.0399903 -6.78926055 -2.54922427 0 0 Z " fill="#0C0C0C" transform="translate(543.0390625,587.765625)"/>
<path d="M0 0 C2.5 1.6875 2.5 1.6875 4.5 4.6875 C5.04973372 8.92830296 5.01418014 10.94110948 2.5625 14.5 C-1.3184267 17.2720905 -4.84127044 18.00746758 -9.5 18.6875 C-9.5 19.3475 -9.5 20.0075 -9.5 20.6875 C-6.667832 21.02198259 -6.667832 21.02198259 -3.5 20.6875 C-2.12689293 19.39516393 -0.78965176 18.06312854 0.5 16.6875 C1.82 16.6875 3.14 16.6875 4.5 16.6875 C4.8125 18.9375 4.8125 18.9375 4.5 21.6875 C1.83680805 24.38017378 0.14026392 25.57851891 -3.62109375 26.21875 C-14.95597737 26.11194309 -14.95597737 26.11194309 -19.5 21.6875 C-22.66205748 17.99843294 -23.02383784 14.60859268 -22.8515625 9.90234375 C-22.13781767 5.40575132 -19.68632063 2.73425349 -16.375 -0.1875 C-10.86637125 -2.34305038 -5.49177327 -2.05941498 0 0 Z " fill="#0A0A0A" transform="translate(871.5,588.3125)"/>
<path d="M0 0 C2.375 1.5625 2.375 1.5625 3.375 2.5625 C3.41563832 4.22867115 3.417721 5.89638095 3.375 7.5625 C1.125 7.8125 1.125 7.8125 -1.625 7.5625 C-2.95833333 6.22916667 -4.29166667 4.89583333 -5.625 3.5625 C-8.76981791 2.75934346 -8.76981791 2.75934346 -11.625 2.5625 C-10.96865343 4.5711117 -10.96865343 4.5711117 -9.625 6.5625 C-7.35637688 7.51181425 -7.35637688 7.51181425 -4.75 8 C-1.22861764 8.94141002 0.23331171 9.43430583 3 11.9375 C4.56778959 14.93055285 5.11897939 16.25592492 4.375 19.5625 C1.81379574 22.60825642 0.16980342 24.29756553 -3.625 25.5625 C-5.57975009 25.7072963 -7.5401138 25.78317502 -9.5 25.8125 C-11.04300781 25.85117187 -11.04300781 25.85117187 -12.6171875 25.890625 C-16.04976414 25.51616209 -17.89225081 24.64529803 -20.625 22.5625 C-21.4375 19.875 -21.4375 19.875 -21.625 17.5625 C-19.4375 16.75 -19.4375 16.75 -16.625 16.5625 C-14.93737149 18.2079378 -13.2709651 19.87538577 -11.625 21.5625 C-8.91336222 21.98236946 -8.91336222 21.98236946 -6.625 21.5625 C-6.295 20.5725 -5.965 19.5825 -5.625 18.5625 C-6.28886719 18.40394531 -6.95273437 18.24539063 -7.63671875 18.08203125 C-13.14069716 16.62769535 -17.27370599 15.47773122 -20.625 10.5625 C-21.3125 7.0625 -21.3125 7.0625 -20.625 3.5625 C-15.30396746 -3.19664945 -7.63976962 -3.02956381 0 0 Z " fill="#0B0B0B" transform="translate(716.625,588.4375)"/>
<path d="M0 0 C0.33 1.32 0.66 2.64 1 4 C1.515625 3.34 2.03125 2.68 2.5625 2 C5 0 5 0 8.625 -0.375 C12 0 12 0 14 2 C13.69347955 4.9425963 13.32728846 7.34542308 12 10 C11.443125 9.855625 10.88625 9.71125 10.3125 9.5625 C7.88615805 8.97230872 5.45093655 8.476571 3 8 C0.76822946 11.34765581 0.75366677 12.47061285 0.8125 16.375 C0.81894531 17.31085937 0.82539062 18.24671875 0.83203125 19.2109375 C0.95975954 22.39165695 0.95975954 22.39165695 2 27 C-2.62 27 -7.24 27 -12 27 C-11.67 25.35 -11.34 23.7 -11 22 C-10.90889215 19.83484875 -10.86993677 17.66706136 -10.875 15.5 C-10.87242187 14.3965625 -10.86984375 13.293125 -10.8671875 12.15625 C-10.98674179 9.31507756 -11.35074185 6.76192358 -12 4 C-10.56570999 3.32645501 -9.12742943 2.66140299 -7.6875 2 C-6.88699219 1.62875 -6.08648438 1.2575 -5.26171875 0.875 C-3 0 -3 0 0 0 Z " fill="#050505" transform="translate(565,587)"/>
<path d="M0 0 C1.39456452 0.00667256 2.78911118 0.01863093 4.18359375 0.03515625 C4.89451172 0.03966797 5.60542969 0.04417969 6.33789062 0.04882812 C8.09899388 0.06064761 9.86005411 0.07858362 11.62109375 0.09765625 C11.60046875 1.19207031 11.57984375 2.28648437 11.55859375 3.4140625 C11.61822156 6.92837683 12.10897371 8.97890868 13.62109375 12.09765625 C15.64459699 9.06240139 15.94233393 7.90339423 16.24609375 4.41015625 C16.32085938 3.60191406 16.395625 2.79367187 16.47265625 1.9609375 C16.52164063 1.34605469 16.570625 0.73117187 16.62109375 0.09765625 C19.26109375 0.09765625 21.90109375 0.09765625 24.62109375 0.09765625 C24.07073503 3.53739824 22.48296849 6.11538959 20.75292969 9.09399414 C18.82517857 12.50664587 17.10676856 16.02202187 15.37109375 19.53515625 C15.00757813 20.26669922 14.6440625 20.99824219 14.26953125 21.75195312 C13.38486158 23.53293286 12.50271083 25.31516346 11.62109375 27.09765625 C9.77783203 26.88208008 9.77783203 26.88208008 7.62109375 26.09765625 C6.28076172 24.11987305 6.28076172 24.11987305 5.11328125 21.546875 C4.68402344 20.62068359 4.25476563 19.69449219 3.8125 18.74023438 C3.16087891 17.2774707 3.16087891 17.2774707 2.49609375 15.78515625 C2.05394531 14.82158203 1.61179687 13.85800781 1.15625 12.86523438 C0.33163609 11.06777536 -0.48688813 9.26750138 -1.29736328 7.46362305 C-2.27920955 5.31575123 -3.30841157 3.20247615 -4.37890625 1.09765625 C-3.37890625 0.09765625 -3.37890625 0.09765625 0 0 Z " fill="#0A0A0A" transform="translate(822.37890625,586.90234375)"/>
<path d="M0 0 C0.02505615 0.64549805 0.0501123 1.29099609 0.07592773 1.95605469 C0.19214433 4.88755894 0.31475442 7.81876217 0.4375 10.75 C0.47681641 11.76578125 0.51613281 12.7815625 0.55664062 13.828125 C0.61948242 15.29765625 0.61948242 15.29765625 0.68359375 16.796875 C0.72025146 17.69760742 0.75690918 18.59833984 0.79467773 19.52636719 C0.95650925 22.28349101 0.95650925 22.28349101 2 26 C-2.95 26 -7.9 26 -13 26 C-12.67 24.68 -12.34 23.36 -12 22 C-11.93088685 19.50086867 -11.91535443 16.99998872 -11.9375 14.5 C-11.94652344 13.1903125 -11.95554687 11.880625 -11.96484375 10.53125 C-11.97644531 9.3659375 -11.98804688 8.200625 -12 7 C-12 5.68 -12 4.36 -12 3 C-10.5682384 2.30062798 -9.12932968 1.61587282 -7.6875 0.9375 C-6.48673828 0.36322266 -6.48673828 0.36322266 -5.26171875 -0.22265625 C-3 -1 -3 -1 0 0 Z " fill="#070707" transform="translate(627,588)"/>
<path d="M0 0 C0.33 0.33 0.66 0.66 1 1 C0.65446224 7.21967963 0.65446224 7.21967963 -1.625 9.9375 C-4.85900685 11.38429254 -7.50110134 11.26406782 -11 11 C-12 10 -12 10 -12.4375 7.75 C-11.8940375 4.33394997 -10.44861958 3.00100272 -7.73046875 0.94140625 C-5.09073101 -0.49465875 -2.92199183 -0.40771979 0 0 Z " fill="#0A0A0A" transform="translate(626,576)"/>
<path d="M0 0 C3.69230769 0.69230769 3.69230769 0.69230769 5 2 C5.41221374 10.38167939 5.41221374 10.38167939 3 14 C1.68 13.34 0.36 12.68 -1 12 C-1.02687279 10.18757948 -1.04633715 8.37504767 -1.0625 6.5625 C-1.07410156 5.55316406 -1.08570313 4.54382813 -1.09765625 3.50390625 C-1 1 -1 1 0 0 Z " fill="#F3F3F3" transform="translate(677,591)"/>
<path d="M0 0 C2.125 0.375 2.125 0.375 4 1 C4.125 8.75 4.125 8.75 3 11 C1.68 11 0.36 11 -1 11 C-2.50662097 7.98675805 -2.17770373 5.31713623 -2 2 C-1.34 1.34 -0.68 0.68 0 0 Z " fill="#EBEBEB" transform="translate(862,591)"/>
<path d="M0 0 C2.75 -0.25 2.75 -0.25 6 0 C8.125 1.875 8.125 1.875 10 4 C12.13309192 5.23512079 12.13309192 5.23512079 14 6 C9.67698338 7.48603696 6.80302052 6.53414443 2.671875 5.08203125 C1 4 1 4 0.265625 1.88671875 C0.17796875 1.26410156 0.0903125 0.64148438 0 0 Z " fill="#DADADA" transform="translate(705,591)"/>
<path d="M0 0 C3.3 0.99 6.6 1.98 10 3 C9.67 4.32 9.34 5.64 9 7 C6.8125 7.375 6.8125 7.375 4 7 C2.00977164 5.16038352 0.61010101 3.20813852 -1 1 C-0.67 0.67 -0.34 0.34 0 0 Z " fill="#EBEBEB" transform="translate(701,604)"/>
<path d="M0 0 C0.125 3.375 0.125 3.375 0 7 C-0.66 7.66 -1.32 8.32 -2 9 C-4.125 8.625 -4.125 8.625 -6 8 C-6.25 5.6875 -6.25 5.6875 -6 3 C-3.95575462 1.02389614 -2.8823175 0 0 0 Z " fill="#F1F1F1" transform="translate(804,599)"/>
<path d="M0 0 C0.125 3.375 0.125 3.375 0 7 C-0.66 7.66 -1.32 8.32 -2 9 C-4.125 8.625 -4.125 8.625 -6 8 C-6.25 5.6875 -6.25 5.6875 -6 3 C-3.95575462 1.02389614 -2.8823175 0 0 0 Z " fill="#F1F1F1" transform="translate(538,599)"/>
<path d="M0 0 C-0.21484375 1.890625 -0.21484375 1.890625 -1 4 C-3.06640625 5.046875 -3.06640625 5.046875 -5.5625 5.75 C-6.80193359 6.11351562 -6.80193359 6.11351562 -8.06640625 6.484375 C-9.02353516 6.73960937 -9.02353516 6.73960937 -10 7 C-10 4 -10 4 -8.375 1.8125 C-5.39500988 -0.46170299 -3.66075376 -0.3327958 0 0 Z " fill="#E8E8E8" transform="translate(804,591)"/>
<path d="M0 0 C-0.21484375 1.890625 -0.21484375 1.890625 -1 4 C-3.06640625 5.046875 -3.06640625 5.046875 -5.5625 5.75 C-6.80193359 6.11351562 -6.80193359 6.11351562 -8.06640625 6.484375 C-9.02353516 6.73960937 -9.02353516 6.73960937 -10 7 C-10 4 -10 4 -8.375 1.8125 C-5.39500988 -0.46170299 -3.66075376 -0.3327958 0 0 Z " fill="#E8E8E8" transform="translate(538,591)"/>
<path d="M0 0 C-0.99 0.33 -1.98 0.66 -3 1 C-3.598125 1.680625 -4.19625 2.36125 -4.8125 3.0625 C-7 5 -7 5 -10.25 5.25 C-11.1575 5.1675 -12.065 5.085 -13 5 C-13 3.68 -13 2.36 -13 1 C-11.58622218 0.63447197 -10.16879424 0.28304505 -8.75 -0.0625 C-7.96109375 -0.25972656 -7.1721875 -0.45695313 -6.359375 -0.66015625 C-3.89605178 -1.01497267 -2.34395868 -0.76877544 0 0 Z " fill="#F0F0F0" transform="translate(875,605)"/>
</svg>
